<svg width="271" height="64" viewBox="0 0 271 64" fill="none"
   xmlns="http://www.w3.org/2000/svg">
   <path d="M0 30.2483C4.08516 29.0243 4.50569 25.9936 4.50569 20.9229V10.0248C4.50569 5.30381 7.80986 2.15649 9.61213 2.15649H13.9967V6.46949H11.5946C9.4319 6.46949 9.4319 8.218 9.4319 10.899V21.9137C9.4319 28.7329 5.64713 31.6471 4.86614 32.1133C5.64713 32.5796 9.4319 35.4938 9.4319 42.3713V53.3286C9.4319 56.0097 9.4319 57.7572 11.5946 57.7572H13.9967V62.0702H9.61213C7.80986 62.0702 4.50569 58.9238 4.50569 54.2019V43.3611C4.50569 38.2322 4.08516 35.2024 0 33.9774V30.2483Z" fill="white"/>
   <path d="M44.8764 24.0119H44.9965C46.979 21.3892 49.5623 19.9321 53.0467 19.9321C60.8565 19.9321 62.6588 25.4107 62.6588 31.8219V48.0821H57.8527V32.6379C57.8527 28.2084 57.4923 24.2451 51.9062 24.2451C45.2979 24.2451 44.8774 30.19 44.8774 35.0858V48.0821H40.0713V20.6898H44.8774V24.0119H44.8764Z" fill="white"/>
   <path d="M69.2676 34.4437C69.2676 26.4006 75.8158 19.9321 84.1053 19.9321C92.3948 19.9321 98.943 26.4016 98.943 34.4437C98.943 42.4859 92.3357 48.8398 84.1063 48.8398C75.8769 48.8398 69.2676 42.4869 69.2676 34.4437ZM74.0736 34.3855C74.0736 39.9807 78.1588 44.5268 84.1063 44.5268C90.0528 44.5268 94.139 39.9807 94.139 34.3855C94.139 28.8485 90.0538 24.2451 84.1063 24.2451C78.1588 24.2451 74.0736 28.8495 74.0736 34.3855Z" fill="white"/>
   <path d="M128.743 48.0821H123.937V0H128.743V48.0821Z" fill="white"/>
   <path d="M135.171 34.4437C135.171 26.4006 141.718 19.9321 150.009 19.9321C158.299 19.9321 164.846 26.4016 164.846 34.4437C164.846 42.4859 158.238 48.8388 150.009 48.8388C141.779 48.8388 135.171 42.4869 135.171 34.4437ZM139.976 34.3855C139.976 39.9807 144.06 44.5268 150.009 44.5268C155.955 44.5268 160.041 39.9807 160.041 34.3855C160.041 28.8485 155.956 24.2451 150.009 24.2451C144.06 24.2451 139.976 28.8495 139.976 34.3855Z" fill="white"/>
   <path d="M196.926 46.7416C196.926 51.1129 196.926 54.9003 194.043 58.5149C191.399 61.7778 187.314 63.3515 183.109 63.3515C175.24 63.3515 169.412 58.5149 169.233 50.7632H174.039C174.099 55.8339 177.883 59.0395 183.049 59.0395C190.498 59.0395 192.121 53.7366 192.121 47.5585V44.2947H192.001C189.718 47.1506 185.994 48.8408 182.209 48.8408C173.98 48.8408 168.753 42.1391 168.753 34.504C168.753 26.8115 174.04 19.933 182.39 19.933C186.294 19.933 189.718 21.6233 192.002 24.5957H192.122V20.6907H196.928V46.7416H196.926ZM173.677 34.095C173.677 39.4571 176.921 44.5278 182.929 44.5278C189.117 44.5278 192.361 39.6902 192.361 34.1533C192.361 28.6746 188.815 24.2451 182.869 24.2451C177.282 24.2451 173.677 28.966 173.677 34.095Z" fill="white"/>
   <path d="M203.776 34.4437C203.776 26.4006 210.324 19.9321 218.613 19.9321C226.904 19.9321 233.452 26.4016 233.452 34.4437C233.452 42.4859 226.843 48.8388 218.613 48.8388C210.385 48.8398 203.776 42.4869 203.776 34.4437ZM208.581 34.3855C208.581 39.9807 212.667 44.5268 218.614 44.5268C224.562 44.5268 228.647 39.9807 228.647 34.3855C228.647 28.8485 224.563 24.2451 218.614 24.2451C212.667 24.2451 208.581 28.8495 208.581 34.3855Z" fill="white"/>
   <path d="M271 33.9784C266.914 35.2024 266.494 38.2331 266.494 43.3621V54.2029C266.494 58.9238 263.19 62.0712 261.387 62.0712H257.002V57.7582H259.404C261.567 57.7582 261.567 56.0106 261.567 53.3296V42.3722C261.567 35.4948 265.35 32.5806 266.133 32.1143C265.351 31.648 261.567 28.7348 261.567 21.9147V10.899C261.567 8.218 261.567 6.46949 259.404 6.46949H257.002V2.15649H261.387C263.19 2.15649 266.494 5.30381 266.494 10.0248V20.9229C266.494 25.9936 266.914 29.0243 271 30.2483V33.9784Z" fill="white"/>
</svg>
