<svg width="70" height="70" viewBox="0 0 70 70" fill="none" xmlns="http://www.w3.org/2000/svg">
<rect x="1.5" y="1.5" width="67" height="67" rx="3.5" fill="#111111" stroke="white" stroke-width="3"/>
<g clip-path="url(#clip0_656_207)">
<path d="M53.9757 12.9702C53.4071 12.4004 52.7387 12.1195 51.965 12.1195C51.1924 12.1195 50.515 12.4004 49.9543 12.9702L46.89 16.0254C46.0687 15.493 45.1987 15.0285 44.2902 14.6128C43.3817 14.197 42.4528 13.8402 41.5148 13.5309V8.83203C41.5148 8.03906 41.2452 7.37184 40.6935 6.82129C40.143 6.27074 39.4757 6 38.6828 6H32.7865C32.032 6 31.3761 6.27074 30.8052 6.82129C30.2445 7.37184 29.9635 8.03906 29.9635 8.83203V13.1345C28.978 13.3655 28.0207 13.6555 27.102 14.0135C26.1743 14.3715 25.2952 14.777 24.4637 15.2313L21.0698 11.8861C20.5385 11.3265 19.8917 11.0365 19.1078 11.0365C18.3341 11.0365 17.668 11.3265 17.097 11.8861L12.9702 16.0254C12.4004 16.5952 12.1195 17.2624 12.1195 18.0339C12.1195 18.8076 12.4004 19.485 12.9702 20.0446L16.0254 23.11C15.493 23.9324 15.0296 24.8013 14.6139 25.7098C14.197 26.6183 13.8402 27.5472 13.5309 28.4841H8.83316C8.03906 28.4841 7.37184 28.7548 6.82129 29.3065C6.27074 29.857 6 30.5243 6 31.3172V37.2135C6 37.9668 6.27074 38.625 6.82129 39.1959C7.37184 39.7555 8.03906 40.0365 8.83316 40.0365H13.1345C13.3655 41.022 13.6555 41.9793 14.0135 42.8968C14.3726 43.8257 14.7782 44.7241 15.2313 45.5941L11.8872 48.9291C11.3265 49.4615 11.0365 50.1083 11.0365 50.8922C11.0365 51.6648 11.3265 52.332 11.8872 52.903L16.0254 57.0887C16.5952 57.62 17.2624 57.8817 18.0361 57.8817C18.8087 57.8817 19.485 57.62 20.0469 57.0887L23.11 53.9757C23.9324 54.507 24.8024 54.9704 25.7109 55.3872C26.6195 55.8018 27.5472 56.1609 28.4852 56.4691V61.168C28.4852 61.9609 28.7559 62.627 29.3065 63.1776C29.857 63.7293 30.5254 64 31.3172 64H37.2135C37.968 64 38.625 63.7293 39.1959 63.1776C39.7555 62.627 40.0365 61.9609 40.0365 61.168V56.8655C41.022 56.6345 41.9793 56.3445 42.8968 55.9865C43.8257 55.6285 44.7252 55.223 45.5941 54.7687L48.9291 58.1139C49.4615 58.6746 50.1174 58.9635 50.9126 58.9635C51.7135 58.9635 52.3705 58.6746 52.903 58.1139L57.0887 53.9757C57.62 53.4048 57.8817 52.7387 57.8817 51.965C57.8817 51.1924 57.62 50.515 57.0887 49.9543L53.9757 46.89C54.5082 46.0676 54.9715 45.1987 55.3872 44.2891C55.8018 43.3817 56.1609 42.4528 56.4702 41.5148H61.168C61.9609 41.5148 62.627 41.2429 63.1776 40.6935C63.7293 40.1418 64 39.4757 64 38.6828V32.7865C64 32.032 63.7293 31.3761 63.1776 30.8041C62.627 30.2433 61.9609 29.9635 61.168 29.9635H56.8655C56.6344 29.0165 56.3445 28.0683 55.9865 27.1315C55.6285 26.1833 55.223 25.2952 54.7687 24.4626L58.1139 21.0698C58.6746 20.5385 58.9635 19.8905 58.9635 19.1078C58.9635 18.3341 58.6746 17.668 58.1139 17.097L53.9757 12.9702V12.9702ZM48.4918 42.1945C45.918 47.0112 40.8408 50.2873 35 50.2873C29.157 50.2873 24.0831 47.0112 21.5093 42.1968C21.8107 40.8816 22.308 39.734 23.7636 38.9297C25.7755 37.8094 29.2396 37.8932 30.8879 36.4104L33.1648 42.3893L34.309 39.1302L33.7482 38.5163C33.3268 37.9 33.4718 37.1999 34.2535 37.073C34.5174 37.0311 34.8142 37.0572 35.0997 37.0572C35.4044 37.0572 35.7431 37.0289 36.0309 37.0934C36.757 37.2532 36.8318 37.9566 36.4704 38.5163L35.9096 39.1302L37.0549 42.3893L39.1144 36.4104C40.6006 37.7471 44.6006 38.0167 46.2375 38.9297C47.6977 39.7476 48.1927 40.8827 48.4918 42.1945V42.1945ZM30.4676 32.4013C30.2614 32.4047 30.0927 32.3787 29.9091 32.2767C29.6656 32.1419 29.4934 31.9097 29.3767 31.648C29.1309 31.0975 28.9361 29.6509 29.5546 29.2362L29.439 29.1615L29.4266 29.0018C29.4028 28.7106 29.3971 28.3583 29.3903 27.9879C29.3677 26.6285 29.3393 24.9791 28.2156 24.6495L27.7341 24.5068L28.0525 24.1239C28.9598 23.0318 29.908 22.0769 30.8641 21.3439C31.9459 20.5136 33.0459 19.9619 34.1209 19.8022C35.2277 19.6391 36.2993 19.8871 37.2894 20.6654C37.5805 20.8954 37.8649 21.1729 38.139 21.4957C39.1937 21.5954 40.058 22.1494 40.6743 22.9401C41.0413 23.4113 41.3211 23.9698 41.5001 24.5634C41.6768 25.1547 41.7538 25.7834 41.721 26.402C41.6609 27.5121 41.2452 28.5939 40.4058 29.3846C40.553 29.3892 40.6924 29.422 40.8147 29.4877C41.2837 29.7313 41.2984 30.2603 41.1761 30.7055C41.0537 31.0771 40.8997 31.5075 40.7536 31.87C40.5768 32.3583 40.3174 32.45 39.8167 32.3968C38.6918 37.3189 31.8893 37.4865 30.4676 32.4013V32.4013ZM35 17.0302C44.928 17.0302 52.9698 25.0777 52.9698 35C52.9698 44.928 44.9223 52.9698 35 52.9698C25.0732 52.9698 17.0302 44.9223 17.0302 35C17.0302 25.072 25.0777 17.0302 35 17.0302Z" fill="white"/>
</g>
<defs>
<clipPath id="clip0_656_207">
<rect width="58" height="58" fill="white" transform="translate(6 6)"/>
</clipPath>
</defs>
</svg>
